<svg width="20" height="20" viewBox="0 0 20 20" fill="none" xmlns="http://www.w3.org/2000/svg">
<path d="M4.16667 17.5C3.70833 17.5 3.31611 17.3369 2.99 17.0108C2.66389 16.6847 2.50056 16.2922 2.5 15.8333V4.16667C2.5 3.70833 2.66333 3.31611 2.99 2.99C3.31667 2.66389 3.70889 2.50056 4.16667 2.5H15.8333C16.2917 2.5 16.6842 2.66333 17.0108 2.99C17.3375 3.31667 17.5006 3.70889 17.5 4.16667V15.8333C17.5 16.2917 17.3369 16.6842 17.0108 17.0108C16.6847 17.3375 16.2922 17.5006 15.8333 17.5H4.16667ZM4.16667 15.8333H15.8333V4.16667H4.16667V15.8333ZM6.66667 5.83333C6.43056 5.83333 6.23278 5.91333 6.07333 6.07333C5.91389 6.23333 5.83389 6.43111 5.83333 6.66667V13.3333C5.83333 13.5694 5.91333 13.7675 6.07333 13.9275C6.23333 14.0875 6.43111 14.1672 6.66667 14.1667C6.90278 14.1667 7.10083 14.0867 7.26083 13.9267C7.42083 13.7667 7.50056 13.5689 7.5 13.3333V6.66667C7.5 6.43056 7.42 6.23278 7.26 6.07333C7.1 5.91389 6.90222 5.83389 6.66667 5.83333ZM13.3333 5.83333C13.0972 5.83333 12.8994 5.91333 12.74 6.07333C12.5806 6.23333 12.5006 6.43111 12.5 6.66667V11.6667C12.5 11.9028 12.58 12.1008 12.74 12.2608C12.9 12.4208 13.0978 12.5006 13.3333 12.5C13.5694 12.5 13.7675 12.42 13.9275 12.26C14.0875 12.1 14.1672 11.9022 14.1667 11.6667V6.66667C14.1667 6.43056 14.0867 6.23278 13.9267 6.07333C13.7667 5.91389 13.5689 5.83389 13.3333 5.83333ZM10 5.83333C9.76389 5.83333 9.56611 5.91333 9.40667 6.07333C9.24722 6.23333 9.16722 6.43111 9.16667 6.66667V9.16667C9.16667 9.40278 9.24667 9.60083 9.40667 9.76083C9.56667 9.92083 9.76444 10.0006 10 10C10.2361 10 10.4342 9.92 10.5942 9.76C10.7542 9.6 10.8339 9.40222 10.8333 9.16667V6.66667C10.8333 6.43056 10.7533 6.23278 10.5933 6.07333C10.4333 5.91389 10.2356 5.83389 10 5.83333Z" fill="#404040"/>
</svg>
