<svg width="24" height="24" viewBox="0 0 24 24" fill="none" xmlns="http://www.w3.org/2000/svg">
<path d="M14.7401 9L14.3941 18M9.60612 18L9.26012 9M19.2281 5.79C19.5701 5.842 19.9101 5.897 20.2501 5.956M19.2281 5.791L18.1601 19.673C18.1165 20.2382 17.8612 20.7662 17.4451 21.1512C17.0291 21.5363 16.483 21.7502 15.9161 21.75H8.08412C7.51722 21.7502 6.97114 21.5363 6.5551 21.1512C6.13906 20.7662 5.88371 20.2382 5.84012 19.673L4.77212 5.79M19.2281 5.79C18.074 5.61552 16.9139 5.4831 15.7501 5.393M3.75012 5.955C4.09012 5.896 4.43012 5.841 4.77212 5.79M4.77212 5.79C5.92626 5.61552 7.08636 5.4831 8.25012 5.393M15.7501 5.393V4.477C15.7501 3.297 14.8401 2.313 13.6601 2.276C12.5537 2.24064 11.4465 2.24064 10.3401 2.276C9.16012 2.313 8.25012 3.298 8.25012 4.477V5.393M15.7501 5.393C13.2538 5.20008 10.7464 5.20008 8.25012 5.393" stroke="#B91C1C" stroke-width="1.5" stroke-linecap="round" stroke-linejoin="round"/>
</svg>
