<svg width="20" height="20" viewBox="0 0 20 20" fill="none" xmlns="http://www.w3.org/2000/svg">
<path d="M3.33334 15H6.66667V4.99999H3.33334V15ZM8.33334 15H11.6667V4.99999H8.33334V15ZM13.3333 15H16.6667V4.99999H13.3333V15ZM3.33334 16.6667C2.87501 16.6667 2.48278 16.5036 2.15667 16.1775C1.83056 15.8514 1.66723 15.4589 1.66667 15V4.99999C1.66667 4.54166 1.83001 4.14944 2.15667 3.82333C2.48334 3.49722 2.87556 3.33388 3.33334 3.33333H16.6667C17.125 3.33333 17.5175 3.49666 17.8442 3.82333C18.1708 4.14999 18.3339 4.54222 18.3333 4.99999V15C18.3333 15.4583 18.1703 15.8508 17.8442 16.1775C17.5181 16.5042 17.1256 16.6672 16.6667 16.6667H3.33334Z" fill="#404040"/>
</svg>
