<svg width="16" height="16" viewBox="0 0 16 16" fill="none" xmlns="http://www.w3.org/2000/svg">
<path d="M8.00016 2.16665C4.7785 2.16665 2.16683 4.77831 2.16683 7.99998C2.16683 11.2216 4.7785 13.8333 8.00016 13.8333C11.2218 13.8333 13.8335 11.2216 13.8335 7.99998C13.8335 4.77831 11.2218 2.16665 8.00016 2.16665ZM1.3335 7.99998C1.3335 4.31798 4.31816 1.33331 8.00016 1.33331C11.6822 1.33331 14.6668 4.31798 14.6668 7.99998C14.6668 11.682 11.6822 14.6666 8.00016 14.6666C4.31816 14.6666 1.3335 11.682 1.3335 7.99998ZM8.00016 6.66665C8.23016 6.66665 8.41683 6.85331 8.41683 7.08331V11.25C8.41683 11.3605 8.37293 11.4665 8.29479 11.5446C8.21665 11.6227 8.11067 11.6666 8.00016 11.6666C7.88966 11.6666 7.78367 11.6227 7.70553 11.5446C7.62739 11.4665 7.5835 11.3605 7.5835 11.25V7.08331C7.5835 6.85331 7.77016 6.66665 8.00016 6.66665ZM8.00016 5.66665C8.17697 5.66665 8.34654 5.59641 8.47157 5.47138C8.59659 5.34636 8.66683 5.17679 8.66683 4.99998C8.66683 4.82317 8.59659 4.6536 8.47157 4.52858C8.34654 4.40355 8.17697 4.33331 8.00016 4.33331C7.82335 4.33331 7.65378 4.40355 7.52876 4.52858C7.40373 4.6536 7.3335 4.82317 7.3335 4.99998C7.3335 5.17679 7.40373 5.34636 7.52876 5.47138C7.65378 5.59641 7.82335 5.66665 8.00016 5.66665Z" fill="#292929"/>
</svg>
